<svg width="42" height="54" viewBox="0 0 42 54" fill="none" xmlns="http://www.w3.org/2000/svg">
<path d="M6.07375 21.968L0.15375 22V0.4H8.44175C14.8418 0.4 18.5858 3.44 18.5858 8.464C18.5858 13.648 15.0338 16.72 8.76175 16.72H6.07375V21.968ZM8.60175 5.84H6.07375V11.28H8.60175C11.2578 11.28 12.5058 10.288 12.5058 8.464C12.5058 6.768 11.1618 5.84 8.60175 5.84ZM30.383 22.512C27.503 22.512 25.871 21.04 24.975 18.096L19.535 0.4H25.583L30.287 16.336C30.319 16.432 30.351 16.464 30.415 16.464C30.479 16.464 30.511 16.432 30.543 16.336L35.183 0.4H41.231L35.791 18.096C34.895 21.04 33.263 22.512 30.383 22.512ZM6.09625 54L12.2083 34.672C12.6883 33.136 13.7443 32.4 15.2163 32.4C16.6563 32.4 17.7123 33.136 18.1923 34.672L24.3043 54H23.1523L21.1042 47.472L9.32825 47.504L7.28025 54H6.09625ZM13.2323 34.992L9.64825 46.416H20.7523L17.1683 34.992C16.8483 33.968 16.2403 33.456 15.2163 33.456C14.1923 33.456 13.5523 33.968 13.2323 34.992ZM29.462 32.688H30.646V54H29.462V32.688Z" fill="white"/>
</svg>
