<svg width="20" height="20" viewBox="0 0 20 20" fill="none" xmlns="http://www.w3.org/2000/svg">
<g clip-path="url(#clip0_1487_1867)">
<mask id="mask0_1487_1867" style="mask-type:alpha" maskUnits="userSpaceOnUse" x="0" y="0" width="20" height="20">
<circle cx="10" cy="10" r="10" fill="#D9D9D9"/>
</mask>
<g mask="url(#mask0_1487_1867)">
<path d="M0 0H20V20H0V0Z" fill="#1E50A0"/>
<path d="M11.29 6.24V7.89474H14.5742L19.9997 2.46895V0H17.5307L11.29 6.24Z" fill="white"/>
<path d="M19.9997 0H18.7652L11.29 7.47526V7.89474H12.4133L19.9997 0.308421V0Z" fill="#D22F27"/>
<path d="M17.531 20.0002H19.9997V17.5307L14.5746 12.1055H11.29V13.7597L17.531 20.0002Z" fill="white"/>
<path d="M19.9998 20.0002V18.7649L13.3401 12.1055H11.7959L19.6907 20.0002H19.9998Z" fill="#D22F27"/>
<path d="M8.70968 13.7602V12.1055H5.42548L0 17.5313V20.0002H2.46903L8.70968 13.7602Z" fill="white"/>
<path d="M0 20.0002H1.23452L8.70968 12.5249V12.1055H7.58645L0 19.6918V20.0002Z" fill="#D22F27"/>
<path d="M2.46871 0H0V2.46947L5.42516 7.89474H8.70968V6.24053L2.46871 0Z" fill="white"/>
<path d="M0 0V1.23526L6.66 7.89474H8.20387L0.309032 0H0Z" fill="#D22F27"/>
<path d="M0 7.36719H20V12.6303H0V7.36719Z" fill="white"/>
<path d="M8.38721 0H11.613V20H8.38721V0Z" fill="white"/>
<path d="M0 8.42188H20V11.5798H0V8.42188Z" fill="#D22F27"/>
<path d="M9.03223 0H10.9677V20H9.03223V0Z" fill="#D22F27"/>
</g>
</g>
<defs>
<clipPath id="clip0_1487_1867">
<rect width="20" height="20" fill="white"/>
</clipPath>
</defs>
</svg>
