<svg width="166" height="27" viewBox="0 0 166 27" fill="none" xmlns="http://www.w3.org/2000/svg">
<path d="M5.10289 19.974L0.292891 20V2.45H7.02689C12.2269 2.45 15.2689 4.92 15.2689 9.002C15.2689 13.214 12.3829 15.71 7.28689 15.71H5.10289V19.974ZM7.15689 6.87H5.10289V11.29H7.15689C9.31489 11.29 10.3289 10.484 10.3289 9.002C10.3289 7.624 9.23689 6.87 7.15689 6.87ZM17.7302 1.02H22.4102V20H17.7302V1.02ZM31.3883 20.39C27.5923 20.39 25.0183 17.27 25.0183 13.474C25.0183 9.704 28.1123 6.584 32.1683 6.584C36.3283 6.584 39.3183 9.496 39.3183 13.474V20H34.8983V19.038C34.0663 19.896 32.8963 20.39 31.3883 20.39ZM32.1683 15.996C33.6503 15.996 34.6383 14.852 34.6383 13.5C34.6383 12.122 33.6503 10.978 32.1683 10.978C30.6863 10.978 29.6983 12.122 29.6983 13.5C29.6983 14.852 30.6863 15.996 32.1683 15.996ZM48.4932 26.396C45.1132 26.396 42.8512 24.966 41.6552 22.418L45.5292 20.338C45.9452 21.222 46.8032 22.132 48.4152 22.132C50.1052 22.132 51.2232 21.014 51.3532 19.116C50.6772 19.818 49.7152 20.13 48.4412 20.13C44.0472 20.13 42.2532 17.348 42.2532 13.448V7H46.8552V13.344C46.8552 14.774 47.6872 15.736 49.0652 15.736C50.2092 15.736 51.2752 14.774 51.2752 13.344V7H56.0332V18.752C56.0332 23.432 52.8092 26.396 48.4932 26.396ZM65.6315 20.416C63.2915 20.416 61.9655 19.22 61.2375 16.828L56.8175 2.45H61.7315L65.5535 15.398C65.5795 15.476 65.6055 15.502 65.6575 15.502C65.7095 15.502 65.7355 15.476 65.7615 15.398L69.5315 2.45H74.4455L70.0255 16.828C69.2975 19.22 67.9715 20.416 65.6315 20.416ZM78.7479 5.622C77.2139 5.622 75.9399 4.348 75.9399 2.814C75.9399 1.28 77.2139 0.00599861 78.7479 0.00599861C80.2819 0.00599861 81.5559 1.28 81.5559 2.814C81.5559 4.348 80.2819 5.622 78.7479 5.622ZM76.4079 7H81.0879V20H76.4079V7ZM89.65 20.416C86.712 20.416 84.814 19.402 83.696 17.426L87.076 15.528C87.544 16.36 88.246 16.776 89.416 16.776C90.378 16.776 90.82 16.438 90.82 16.022C90.82 14.436 83.956 16.048 83.956 11.004C83.956 8.56 86.036 6.584 89.572 6.584C92.666 6.584 94.356 8.092 95.11 9.548L91.73 11.472C91.444 10.692 90.56 10.224 89.676 10.224C89 10.224 88.636 10.51 88.636 10.9C88.636 12.512 95.5 11.03 95.5 15.918C95.5 18.648 92.822 20.416 89.65 20.416ZM100.431 5.622C98.8975 5.622 97.6235 4.348 97.6235 2.814C97.6235 1.28 98.8975 0.00599861 100.431 0.00599861C101.965 0.00599861 103.239 1.28 103.239 2.814C103.239 4.348 101.965 5.622 100.431 5.622ZM98.0915 7H102.771V20H98.0915V7ZM112.53 20.39C108.474 20.39 105.38 17.27 105.38 13.474C105.38 9.704 108.474 6.584 112.53 6.584C116.586 6.584 119.68 9.704 119.68 13.474C119.68 17.27 116.586 20.39 112.53 20.39ZM112.53 15.996C114.012 15.996 115 14.852 115 13.5C115 12.122 114.012 10.978 112.53 10.978C111.048 10.978 110.06 12.122 110.06 13.5C110.06 14.852 111.048 15.996 112.53 15.996ZM128.815 11.16C127.099 11.16 126.449 12.538 126.449 14.176V20H121.769V13.604C121.769 9.782 124.005 6.61 128.815 6.61C133.625 6.61 135.861 9.782 135.861 13.604V20H131.181V14.176C131.181 12.538 130.531 11.16 128.815 11.16ZM145.836 20L150.802 4.296C151.192 3.048 152.05 2.45 153.246 2.45C154.416 2.45 155.274 3.048 155.664 4.296L160.63 20H159.694L158.03 14.696L148.462 14.722L146.798 20H145.836ZM151.634 4.556L148.722 13.838H157.744L154.832 4.556C154.572 3.724 154.078 3.308 153.246 3.308C152.414 3.308 151.894 3.724 151.634 4.556ZM164.821 2.684H165.783V20H164.821V2.684Z" fill="white"/>
</svg>
