<svg width="79" height="13" viewBox="0 0 79 13" fill="none" xmlns="http://www.w3.org/2000/svg">
<path d="M-0.00399995 10V1.6H3.632C4.384 1.6 5.032 1.724 5.576 1.972C6.12 2.212 6.54 2.56 6.836 3.016C7.132 3.472 7.28 4.016 7.28 4.648C7.28 5.272 7.132 5.812 6.836 6.268C6.54 6.724 6.12 7.076 5.576 7.324C5.032 7.564 4.384 7.684 3.632 7.684H1.076L1.94 6.808V10H-0.00399995ZM1.94 7.024L1.076 6.1H3.524C4.124 6.1 4.572 5.972 4.868 5.716C5.164 5.46 5.312 5.104 5.312 4.648C5.312 4.184 5.164 3.824 4.868 3.568C4.572 3.312 4.124 3.184 3.524 3.184H1.076L1.94 2.26V7.024ZM8.65306 10V1.096H10.5251V10H8.65306ZM16.2224 10V8.74L16.1024 8.464V6.208C16.1024 5.808 15.9784 5.496 15.7304 5.272C15.4904 5.048 15.1184 4.936 14.6144 4.936C14.2704 4.936 13.9304 4.992 13.5944 5.104C13.2664 5.208 12.9864 5.352 12.7544 5.536L12.0824 4.228C12.4344 3.98 12.8584 3.788 13.3544 3.652C13.8504 3.516 14.3544 3.448 14.8664 3.448C15.8504 3.448 16.6144 3.68 17.1584 4.144C17.7024 4.608 17.9744 5.332 17.9744 6.316V10H16.2224ZM14.2544 10.096C13.7504 10.096 13.3184 10.012 12.9584 9.844C12.5984 9.668 12.3224 9.432 12.1304 9.136C11.9384 8.84 11.8424 8.508 11.8424 8.14C11.8424 7.756 11.9344 7.42 12.1184 7.132C12.3104 6.844 12.6104 6.62 13.0184 6.46C13.4264 6.292 13.9584 6.208 14.6144 6.208H16.3304V7.3H14.8184C14.3784 7.3 14.0744 7.372 13.9064 7.516C13.7464 7.66 13.6664 7.84 13.6664 8.056C13.6664 8.296 13.7584 8.488 13.9424 8.632C14.1344 8.768 14.3944 8.836 14.7224 8.836C15.0344 8.836 15.3144 8.764 15.5624 8.62C15.8104 8.468 15.9904 8.248 16.1024 7.96L16.3904 8.824C16.2544 9.24 16.0064 9.556 15.6464 9.772C15.2864 9.988 14.8224 10.096 14.2544 10.096ZM20.3675 12.424C20.0315 12.424 19.6995 12.372 19.3715 12.268C19.0435 12.164 18.7755 12.02 18.5675 11.836L19.2515 10.504C19.3955 10.632 19.5595 10.732 19.7435 10.804C19.9355 10.876 20.1235 10.912 20.3075 10.912C20.5715 10.912 20.7795 10.848 20.9315 10.72C21.0915 10.6 21.2355 10.396 21.3635 10.108L21.6995 9.316L21.8435 9.112L24.1595 3.544H25.9595L23.0435 10.396C22.8355 10.916 22.5955 11.324 22.3235 11.62C22.0595 11.916 21.7635 12.124 21.4355 12.244C21.1155 12.364 20.7595 12.424 20.3675 12.424ZM21.4715 10.252L18.5915 3.544H20.5235L22.7555 8.944L21.4715 10.252ZM29.3754 10L25.7514 1.6H27.8514L31.0194 9.04H29.7834L32.9994 1.6H34.9314L31.2954 10H29.3754ZM35.6062 10V3.544H37.4782V10H35.6062ZM36.5422 2.644C36.1982 2.644 35.9182 2.544 35.7022 2.344C35.4862 2.144 35.3782 1.896 35.3782 1.6C35.3782 1.304 35.4862 1.056 35.7022 0.856C35.9182 0.655999 36.1982 0.555999 36.5422 0.555999C36.8862 0.555999 37.1662 0.651999 37.3822 0.844C37.5982 1.028 37.7062 1.268 37.7062 1.564C37.7062 1.876 37.5982 2.136 37.3822 2.344C37.1742 2.544 36.8942 2.644 36.5422 2.644ZM41.3876 10.096C40.8356 10.096 40.3036 10.032 39.7916 9.904C39.2876 9.768 38.8876 9.6 38.5916 9.4L39.2156 8.056C39.5116 8.24 39.8596 8.392 40.2596 8.512C40.6676 8.624 41.0676 8.68 41.4596 8.68C41.8916 8.68 42.1956 8.628 42.3716 8.524C42.5556 8.42 42.6476 8.276 42.6476 8.092C42.6476 7.94 42.5756 7.828 42.4316 7.756C42.2956 7.676 42.1116 7.616 41.8796 7.576C41.6476 7.536 41.3916 7.496 41.1116 7.456C40.8396 7.416 40.5636 7.364 40.2836 7.3C40.0036 7.228 39.7476 7.124 39.5156 6.988C39.2836 6.852 39.0956 6.668 38.9516 6.436C38.8156 6.204 38.7476 5.904 38.7476 5.536C38.7476 5.128 38.8636 4.768 39.0956 4.456C39.3356 4.144 39.6796 3.9 40.1276 3.724C40.5756 3.54 41.1116 3.448 41.7356 3.448C42.1756 3.448 42.6236 3.496 43.0796 3.592C43.5356 3.688 43.9156 3.828 44.2196 4.012L43.5956 5.344C43.2836 5.16 42.9676 5.036 42.6476 4.972C42.3356 4.9 42.0316 4.864 41.7356 4.864C41.3196 4.864 41.0156 4.92 40.8236 5.032C40.6316 5.144 40.5356 5.288 40.5356 5.464C40.5356 5.624 40.6036 5.744 40.7396 5.824C40.8836 5.904 41.0716 5.968 41.3036 6.016C41.5356 6.064 41.7876 6.108 42.0596 6.148C42.3396 6.18 42.6196 6.232 42.8996 6.304C43.1796 6.376 43.4316 6.48 43.6556 6.616C43.8876 6.744 44.0756 6.924 44.2196 7.156C44.3636 7.38 44.4356 7.676 44.4356 8.044C44.4356 8.444 44.3156 8.8 44.0756 9.112C43.8356 9.416 43.4876 9.656 43.0316 9.832C42.5836 10.008 42.0356 10.096 41.3876 10.096ZM45.5906 10V3.544H47.4626V10H45.5906ZM46.5266 2.644C46.1826 2.644 45.9026 2.544 45.6866 2.344C45.4706 2.144 45.3626 1.896 45.3626 1.6C45.3626 1.304 45.4706 1.056 45.6866 0.856C45.9026 0.655999 46.1826 0.555999 46.5266 0.555999C46.8706 0.555999 47.1506 0.651999 47.3666 0.844C47.5826 1.028 47.6906 1.268 47.6906 1.564C47.6906 1.876 47.5826 2.136 47.3666 2.344C47.1586 2.544 46.8786 2.644 46.5266 2.644ZM52.2719 10.096C51.5839 10.096 50.9719 9.952 50.4359 9.664C49.9079 9.376 49.4879 8.984 49.1759 8.488C48.8719 7.984 48.7199 7.412 48.7199 6.772C48.7199 6.124 48.8719 5.552 49.1759 5.056C49.4879 4.552 49.9079 4.16 50.4359 3.88C50.9719 3.592 51.5839 3.448 52.2719 3.448C52.9519 3.448 53.5599 3.592 54.0959 3.88C54.6319 4.16 55.0519 4.548 55.3559 5.044C55.6599 5.54 55.8119 6.116 55.8119 6.772C55.8119 7.412 55.6599 7.984 55.3559 8.488C55.0519 8.984 54.6319 9.376 54.0959 9.664C53.5599 9.952 52.9519 10.096 52.2719 10.096ZM52.2719 8.56C52.5839 8.56 52.8639 8.488 53.1119 8.344C53.3599 8.2 53.5559 7.996 53.6999 7.732C53.8439 7.46 53.9159 7.14 53.9159 6.772C53.9159 6.396 53.8439 6.076 53.6999 5.812C53.5559 5.548 53.3599 5.344 53.1119 5.2C52.8639 5.056 52.5839 4.984 52.2719 4.984C51.9599 4.984 51.6799 5.056 51.4319 5.2C51.1839 5.344 50.9839 5.548 50.8319 5.812C50.6879 6.076 50.6159 6.396 50.6159 6.772C50.6159 7.14 50.6879 7.46 50.8319 7.732C50.9839 7.996 51.1839 8.2 51.4319 8.344C51.6799 8.488 51.9599 8.56 52.2719 8.56ZM60.9872 3.448C61.4992 3.448 61.9552 3.552 62.3552 3.76C62.7632 3.96 63.0832 4.272 63.3152 4.696C63.5472 5.112 63.6632 5.648 63.6632 6.304V10H61.7912V6.592C61.7912 6.072 61.6752 5.688 61.4432 5.44C61.2192 5.192 60.8992 5.068 60.4832 5.068C60.1872 5.068 59.9192 5.132 59.6792 5.26C59.4472 5.38 59.2632 5.568 59.1272 5.824C58.9992 6.08 58.9352 6.408 58.9352 6.808V10H57.0632V3.544H58.8512V5.332L58.5152 4.792C58.7472 4.36 59.0792 4.028 59.5112 3.796C59.9432 3.564 60.4352 3.448 60.9872 3.448ZM67.6381 10L71.5021 1.6H72.1141L75.9781 10H75.3181L71.6701 1.984H71.9341L68.2981 10H67.6381ZM69.0541 7.636L69.2581 7.12H74.2861L74.4901 7.636H69.0541ZM77.5031 10V1.6H78.1151V10H77.5031Z" fill="white"/>
</svg>
