<svg width="35" height="35" viewBox="0 0 35 35" fill="none" xmlns="http://www.w3.org/2000/svg">
<path d="M29.6849 16.4277H4.48684C3.66568 16.4277 3 17.0447 3 17.8057V17.9508C3 18.7118 3.66568 19.3287 4.48684 19.3287H29.6849C30.5061 19.3287 31.1718 18.7118 31.1718 17.9508V17.8057C31.1718 17.0447 30.5061 16.4277 29.6849 16.4277Z" fill="white"/>
<path d="M29.6849 25.8555H4.48684C3.66568 25.8555 3 26.4724 3 27.2335V27.3785C3 28.1395 3.66568 28.7565 4.48684 28.7565H29.6849C30.5061 28.7565 31.1718 28.1395 31.1718 27.3785V27.2335C31.1718 26.4724 30.5061 25.8555 29.6849 25.8555Z" fill="white"/>
<path d="M29.6849 7H4.48684C3.66568 7 3 7.61694 3 8.37798V8.52303C3 9.28407 3.66568 9.90101 4.48684 9.90101H29.6849C30.5061 9.90101 31.1718 9.28407 31.1718 8.52303V8.37798C31.1718 7.61694 30.5061 7 29.6849 7Z" fill="white"/>
</svg>
