<svg width="57" height="57" viewBox="0 0 57 57" fill="none" xmlns="http://www.w3.org/2000/svg">
<g clip-path="url(#clip0_426_853)">
<path d="M28.5 0C12.7598 0 0 12.7598 0 28.5C0 44.2402 12.7598 57 28.5 57C44.2402 57 57 44.2402 57 28.5C57 12.7598 44.2402 0 28.5 0Z" fill="#292F41"/>
<path d="M42.3678 16.3937L37.2774 42.0586C37.2774 42.0586 36.5656 43.8385 34.6078 42.9842L22.8609 33.9782L18.5894 31.9137L11.399 29.493C11.399 29.493 10.2955 29.1015 10.1886 28.2472C10.082 27.3929 11.4346 26.9302 11.4346 26.9302L40.0183 15.7172C40.0183 15.7172 42.3678 14.685 42.3678 16.3937Z" fill="#6A6E79"/>
<path d="M21.9574 41.771C21.9574 41.771 21.6145 41.7389 21.1873 40.3861C20.7602 39.0334 18.5889 31.9142 18.5889 31.9142L35.853 20.9506C35.853 20.9506 36.8498 20.3454 36.8142 20.9506C36.8142 20.9506 36.9921 21.0573 36.4581 21.5556C35.9242 22.0541 22.8959 33.7651 22.8959 33.7651" fill="#292F41"/>
<path d="M27.365 37.4321L22.7186 41.6684C22.7186 41.6684 22.3554 41.944 21.958 41.7712L22.8477 33.9023" fill="#6A6E79"/>
</g>
<defs>
<clipPath id="clip0_426_853">
<rect width="57" height="57" fill="white"/>
</clipPath>
</defs>
</svg>
