<svg width="57" height="57" viewBox="0 0 57 57" fill="none" xmlns="http://www.w3.org/2000/svg">
<path d="M28.5 0C12.7598 0 0 12.7598 0 28.5C0 44.2402 12.7598 57 28.5 57C44.2402 57 57 44.2402 57 28.5C57 12.7598 44.2402 0 28.5 0Z" fill="#FF0000"/>
<path d="M24.667 21.7793V36.014L36.0003 28.9122L24.667 21.7793Z" fill="#FF0000"/>
<path d="M47.2067 19.1645C46.7553 17.5352 45.5057 16.2573 43.8961 15.8056C40.9324 15 29.0181 15 29.0181 15C29.0181 15 17.1264 14.9807 14.1318 15.8056C12.5306 16.2585 11.275 17.5352 10.8284 19.1645C10.2665 22.2528 9.98737 25.3785 10.0004 28.5187C9.9945 31.6384 10.2725 34.7593 10.8284 37.8283C11.275 39.4576 12.5306 40.7355 14.1318 41.1944C17.0955 42 29.0181 42 29.0181 42C29.0181 42 40.9027 42 43.8961 41.1944C45.5057 40.7355 46.7553 39.4588 47.2067 37.8283C47.7519 34.7593 48.018 31.6384 47.999 28.5187C48.018 25.3785 47.7579 22.2528 47.2067 19.1645ZM25.2122 34.3004V22.7117L35.1297 28.5187L25.2122 34.3004Z" fill="white"/>
</svg>
