<svg width="38" height="38" viewBox="0 0 38 38" fill="none" xmlns="http://www.w3.org/2000/svg">
<g clip-path="url(#clip0_1472_1856)">
<path d="M15.1097 37.5185C4.93287 35.3737 -1.58261 25.3653 0.555988 15.1633C2.69459 4.96124 12.6792 -1.57036 22.856 0.576209C33.0328 2.72278 39.5483 12.729 37.407 22.9305C35.2657 33.1321 25.2861 39.6628 15.1097 37.5185Z" fill="#E8EAEE"/>
<g style="mix-blend-mode:multiply">
<mask id="mask0_1472_1856" style="mask-type:luminance" maskUnits="userSpaceOnUse" x="0" y="0" width="38" height="38">
<path d="M37.9984 18.7933V18.8898C37.9984 19.0486 37.9984 19.2129 37.9885 19.3772V19.4664C37.9885 19.6222 37.9844 19.7668 37.9741 19.9208C37.9633 20.0837 37.9553 20.2332 37.9445 20.4024C37.9144 20.8813 37.8619 21.3602 37.7955 21.8329C37.6998 22.4769 37.575 23.1112 37.417 23.7401C37.2931 24.2047 37.1553 24.6734 36.9991 25.1237C36.9856 25.1683 36.9771 25.209 36.9618 25.2549C36.9583 25.265 36.9556 25.2753 36.9538 25.2857C36.9089 25.4116 36.8581 25.541 36.8106 25.6629C36.7558 25.8195 36.7028 25.9816 36.64 26.1324C36.6115 26.1906 36.5861 26.2502 36.5637 26.311C36.1637 27.2876 35.6763 28.2266 35.1074 29.1166C34.7028 29.768 34.2574 30.3933 33.7737 30.989C33.5043 31.3179 33.2296 31.6277 32.9441 31.937C30.5209 34.5463 27.4058 36.4221 23.9574 37.3483C23.3383 37.5157 22.7105 37.6498 22.0769 37.75C22.0702 37.7537 22.0625 37.7552 22.0549 37.7541C21.0458 37.9183 20.0249 38.0005 19.0023 38C17.7105 38.0003 16.4219 37.8702 15.1565 37.6117C15.1407 37.6061 15.1239 37.6035 15.1071 37.6041C14.4703 37.4729 13.8409 37.308 13.2217 37.11C12.6889 36.9395 12.1654 36.7529 11.6582 36.5396C11.4939 36.4735 11.3341 36.4017 11.1702 36.3312C8.86771 35.2917 6.79781 33.8045 5.08255 31.9571C4.90299 31.7727 4.73644 31.5813 4.56675 31.3862C4.00116 30.7307 3.48288 30.0363 3.01577 29.3081C2.59983 28.6678 2.22297 28.0032 1.88721 27.3179C1.70765 26.9407 1.53886 26.556 1.37815 26.1695C1.31082 26.003 1.24617 25.8352 1.18063 25.6624C1.17749 25.6589 1.17749 25.6589 1.17749 25.6562C1.1326 25.5339 1.08322 25.4111 1.04865 25.2853C1.04443 25.2754 1.04142 25.2651 1.03967 25.2545C1.02188 25.2117 1.00688 25.1679 0.994783 25.1233C0.839909 24.6716 0.69985 24.2029 0.579991 23.7396C0.419605 23.1109 0.291946 22.4743 0.197521 21.8324C0.13198 21.4035 0.0848443 20.9572 0.0552163 20.5153C0.0493805 20.3622 0.0377091 20.2109 0.0273842 20.0632C0.0197527 19.8628 0.00987715 19.6655 0.00538806 19.466V19.3767C1.15089e-06 19.2125 0 19.0482 0 18.8893V18.7929C0 18.7402 1.15089e-06 18.6733 0.00538806 18.6211V18.4872C0.00987715 18.3774 0.00987715 18.2671 0.0166108 18.1529C0.0166108 18.1145 0.0197521 18.0792 0.0197521 18.0404C0.0273836 17.7891 0.0493804 17.5427 0.0691324 17.2972V17.2615C0.0699651 17.225 0.073416 17.1886 0.0794578 17.1526C0.102352 16.9085 0.13198 16.6594 0.1652 16.4162C0.166772 16.3711 0.172786 16.3262 0.183156 16.2823C0.210539 16.0805 0.239269 15.8877 0.272938 15.6922C0.320522 15.4481 0.35419 15.2053 0.41569 14.9665C0.41569 14.9598 0.41569 14.9517 0.41569 14.9446C0.472702 14.6987 0.525674 14.4514 0.591663 14.2166C0.595985 14.1874 0.603666 14.1588 0.614557 14.1314C0.65451 13.964 0.69985 13.8042 0.74923 13.636C0.787836 13.4949 0.828238 13.3566 0.872232 13.2195C0.885699 13.1651 0.909042 13.1169 0.921163 13.0624C0.995681 12.829 1.08232 12.5973 1.16447 12.3728C1.18563 12.3046 1.21097 12.2376 1.24034 12.1724C1.2454 12.1491 1.25324 12.1265 1.26368 12.105C1.30857 11.9863 1.35346 11.8712 1.39835 11.752C1.40622 11.7413 1.41285 11.7298 1.4181 11.7176C1.47242 11.5703 1.53976 11.4212 1.60575 11.2807C1.64384 11.1873 1.68684 11.0959 1.73459 11.007C2.05054 10.312 2.41132 9.63798 2.81466 8.98917C3.40491 8.03658 4.08106 7.13933 4.83475 6.30849C4.83475 6.29912 4.84194 6.29599 4.84508 6.29064C6.60555 4.33199 8.75972 2.76235 11.1684 1.68313C11.2676 1.63403 11.3646 1.59029 11.4607 1.54923C12.0353 1.30012 12.6225 1.08068 13.2199 0.891779C13.8395 0.694986 14.4688 0.529776 15.1053 0.396795C15.1213 0.391438 15.1379 0.387992 15.1547 0.386529C17.4272 -0.0758957 19.7652 -0.123837 22.0549 0.245041C22.0625 0.244736 22.07 0.246109 22.0769 0.249058C22.7114 0.344412 23.3395 0.478567 23.9574 0.650759C27.5275 1.60834 30.7379 3.58321 33.1932 6.33215C33.4765 6.64235 33.7391 6.96192 34.0013 7.29176C34.4723 7.89491 34.906 8.526 35.3 9.18154C35.5864 9.6493 35.8485 10.1313 36.0918 10.6268C36.2633 10.9838 36.4294 11.3431 36.5726 11.7185C36.5762 11.731 36.5847 11.7417 36.5883 11.7529C36.6413 11.872 36.6853 11.9872 36.7262 12.1059C36.7423 12.1395 36.7558 12.1743 36.7666 12.2099C36.7868 12.2648 36.8052 12.317 36.8294 12.3737C36.9111 12.5969 36.987 12.8299 37.0687 13.0633C37.193 13.4498 37.3097 13.8435 37.4143 14.2465C37.4413 14.3679 37.47 14.484 37.4969 14.5987C37.527 14.721 37.5566 14.8455 37.5764 14.9674C37.6285 15.1905 37.6702 15.4137 37.7111 15.6369C37.7295 15.752 37.7474 15.8703 37.7694 15.9895C37.7999 16.168 37.8224 16.3465 37.8457 16.5251C37.8749 16.7331 37.8947 16.9379 37.9167 17.145C37.9409 17.4128 37.9575 17.6905 37.9678 17.9623C37.975 18.0255 37.9778 18.0892 37.9764 18.1529C37.9867 18.2671 37.9867 18.376 37.9907 18.4872V18.6211C37.9981 18.6782 38.0007 18.7358 37.9984 18.7933Z" fill="white"/>
</mask>
<g mask="url(#mask0_1472_1856)">
<path d="M4.1542 38.6609H6.01793H7.88166H9.71919H9.74495H11.5825H11.6082H13.472H14.0928H58.8174V26.9132V0H14.0928H13.472H12.229H9.12326H7.25953H7.01219H6.88696H6.63918H4.77589H1.66923H0.427188H0V0.126616V1.51195V2.20461V3.59038V4.28348V6.36148V7.05458V9.13214V9.82524V11.2106V12.5963V13.9821V14.6748V15.367V17.4459V22.295V24.3734V25.0661V25.7587V26.9132V27.1445V28.5298V29.9152V30.6083V32.6862V33.3794V35.4573V36.15V37.5362V38.2293V38.6609H0.427188H2.2625H2.29047H4.12667H4.1542Z" fill="#C7323E"/>
<path d="M4.09668 38.5668H5.96428H7.83189H9.67324H9.69905H11.5404H11.5662H13.4338H14.0559H58.8735V26.6055H14.0559H13.4338H10.3216H9.07607H6.9606H6.83512H4.71966H3.4737H0.361914H-0.0661621V26.841V28.2515V29.6621V30.3678V32.4836V33.1893V35.3051V36.0103V37.4217V38.1274V38.5668H0.361914H2.20104H2.22907H4.06909H4.09668Z" fill="#4BA556"/>
<path d="M10.4724 -0.796875H-0.0661621V38.5672H10.4724V-0.796875Z" fill="white"/>
<path d="M1.76624 -0.796875H3.14036V-0.151833H3.59959V0.493209H4.05792V1.13914H4.51581V1.78418H4.97415V2.43101H4.51581V3.07471H4.05792V3.72065H3.59959V4.36569H3.14125V5.01073H2.68292V5.65577H2.22502V5.01073H1.76624V4.36569H1.3088V3.72065H0.850465V3.07471H0.39213V2.43101H-0.066205V1.78418H0.39213V1.13914H0.850465V0.493209H1.3088V-0.151833H1.76624V-0.796875ZM2.22458 0.493209H2.68292V1.13914H3.14125V1.78418H3.59959V2.43101H3.14125V3.07471H2.68292V3.72065H2.22502V3.07471H1.76624V2.43101H1.3088V1.78418H1.76624V1.13914H2.22458V0.493209ZM2.22458 1.78418H2.68292V2.43101H2.22458V1.78418ZM-0.0666504 -0.151833H0.391684V0.493654H-0.0666504V-0.151833ZM-0.0666504 3.72065H0.391684V4.36569H-0.0666504V3.72065ZM4.97415 -0.796875H5.24915V0.493654H4.97415V-0.796875ZM4.97415 3.72065H5.24915V5.01073H4.97415V3.72065ZM0.851355 5.01073H1.3088V5.65577H1.76624V6.30171H2.22458V6.94675H1.76624V7.59179H1.3088V8.23728H0.850465V7.59179H0.39213V6.94675H-0.066205V6.30171H0.39213V5.65577H0.850465L0.851355 5.01073ZM0.851355 6.30171H1.3088V6.94675H0.850465L0.851355 6.30171ZM3.60003 5.01073H4.05792V5.65577H4.51625V6.30171H4.97459V6.94675H4.51581V7.59179H4.05792V8.23728H3.59959V7.59179H3.14125V6.94675H2.68292V6.30171H3.14125V5.65577H3.59959L3.60003 5.01073ZM3.60003 6.30171H4.05792V6.94675H3.59959L3.60003 6.30171ZM-0.066205 8.88277H0.39213V9.52825H-0.066205V8.88277ZM4.97415 8.23728H5.24915V9.52825H4.97415V8.23728Z" fill="#C7323E"/>
<path d="M-0.0661621 10.8183H0.392172V10.1733H0.850508V9.52826H1.30884V8.88277H1.76629V8.23728H2.22462V7.5918H2.68296V8.23728H3.14129V8.88277H3.59963V9.52826H4.05796V10.1733H4.51585V10.8183H4.97419V11.4638H5.24919V14.0453H4.97419V14.6904H4.51585V15.3359H4.05796V15.9814H3.59963V16.6268H3.14129V17.2714H2.68296V18.9492H1.76629V18.5629H1.30884V17.9169H0.850508V17.271H0.392172V16.6268H-0.0661621V14.6904H0.392172V15.3359H0.850508V15.9809H1.30884V16.6268H1.76629V15.9809H2.22462V15.3359H2.68296V14.6904H3.14129V14.0453H3.59963V13.3998H4.05796V12.7544H3.59963V12.1093H3.14129V11.4638H1.76629V12.1093H2.68296V12.7544H2.22507V13.3998H1.76629V14.0453H1.30884V13.3998H0.850508V12.7544H0.392172V12.1093H-0.0661621V10.8183ZM-0.0661621 13.3998H0.392172V14.0453H-0.0661621V13.3998ZM4.97419 15.3359H5.24919V15.9809H4.97419V15.3359ZM4.05796 16.6268H4.51585V17.2714H4.97419V17.9169H5.24919V18.9492H4.97419V18.5629H4.51585V17.9169H4.05796V16.6268ZM3.14129 18.5629H3.59963V18.9501H3.14129V18.5629Z" fill="#C7323E"/>
<path d="M8.64037 -0.796875H7.26581V-0.151833H6.80703V0.493209H6.34959V1.13914H5.89125V1.78418H5.43292V2.43101H5.89125V3.07471H6.34959V3.72065H6.80748V4.36569H7.26581V5.01073H7.72415V5.65577H8.18248V5.01073H8.64082V4.36569H9.09871V3.72065H9.5566V3.07471H10.0154V2.43101H10.4733V1.78418H10.0149V1.13914H9.55615V0.493209H9.09826V-0.151833H8.64037V-0.796875ZM8.18204 0.493209H7.7237V1.13914H7.26537V1.78418H6.80703V2.43101H7.26537V3.07471H7.7237V3.72065H8.18204V3.07471H8.64037V2.43101H9.09826V1.78418H8.64037V1.13914H8.18204V0.493209ZM8.18204 1.78418H7.7237V2.43101H8.18204V1.78418ZM10.4728 -0.151833H10.0145V0.493654H10.4728V-0.151833ZM10.4728 3.72065H10.0145V4.36569H10.4728V3.72065ZM5.43247 -0.796875H5.15747V0.493654H5.43247V-0.796875ZM5.43247 3.72065H5.15747V5.01073H5.43247V3.72065ZM9.55348 5.01073H9.09826V5.65577H8.64037V6.30171H8.18204V6.94675H8.64037V7.59179H9.09826V8.23728H9.55615V7.59179H10.0149V6.94675H10.4728V6.30171H10.0149V5.65577H9.55615L9.55348 5.01073ZM9.55348 6.30171H9.09782V6.94675H9.55615L9.55348 6.30171ZM6.80659 5.01073H6.34959V5.65577H5.89125V6.30171H5.43292V6.94675H5.89125V7.59179H6.34959V8.23728H6.80748V7.59179H7.26581V6.94675H7.72415V6.30171H7.26581V5.65577H6.80748L6.80659 5.01073ZM6.80659 6.30171H6.34959V6.94675H6.80748L6.80659 6.30171ZM10.4724 8.88277H10.0145V9.52825H10.4728L10.4724 8.88277ZM5.43247 8.23728H5.15747V9.52825H5.43247V8.23728Z" fill="#C7323E"/>
<path d="M10.4728 10.8183H10.0149V10.1733H9.55615V9.52826H9.09826V8.88277H8.64037V8.23728H8.18204V7.5918H7.7237V8.23728H7.26537V8.88277H6.80703V9.52826H6.34959V10.1733H5.89125V10.8183H5.43292V11.4638H5.15792V14.0453H5.43292V14.6904H5.89125V15.3359H6.34959V15.9814H6.80748V16.6268H7.26581V17.2714H7.72415V18.9492H8.64082V18.5629H9.09871V17.9169H9.5566V17.271H10.0154V16.6268H10.4733V14.6904H10.0149V15.3359H9.55615V15.9809H9.09826V16.6268H8.64037V15.9809H8.18204V15.3359H7.7237V14.6904H7.26537V14.0453H6.80703V13.3998H6.34959V12.7544H6.80748V12.1093H7.26581V11.4638H8.64037V12.1093H7.7237V12.7544H8.18204V13.3998H8.64037V14.0453H9.09826V13.3998H9.55615V12.7544H10.0149V12.1093H10.4728V10.8183ZM10.4728 13.3998H10.0145V14.0453H10.4728V13.3998ZM5.43247 15.3359H5.15747V15.9809H5.43247V15.3359ZM6.34959 16.6268H5.89125V17.2714H5.43292V17.9169H5.15792V18.9492H5.43292V18.5629H5.89125V17.9169H6.34959V16.6268ZM7.26581 18.5629H6.80748V18.9501H7.26581V18.5629Z" fill="#C7323E"/>
<path d="M2.70215 3.6992H2.24382V3.05416H1.78593V2.40867H1.32715V1.76319H1.78593V1.11814H2.24382V0.472656H2.70215V1.11814H3.16049V1.76319H3.61838V2.40867H3.16049V3.05416H2.70215V3.6992Z" fill="#FCFDFF"/>
<path d="M8.20264 3.6992H7.74431V3.05416H7.28597V2.40867H6.82764V1.76319H7.28597V1.11814H7.74431V0.472656H8.20264V1.11814H8.66098V1.76319H9.11887V2.40867H8.66098V3.05416H8.20264V3.6992Z" fill="#FCFDFF"/>
<path d="M2.70199 1.76172H2.24365V2.40676H2.70199V1.76172Z" fill="#C7323E"/>
<path d="M8.18197 1.7832H7.72363V2.42825H8.18197V1.7832Z" fill="#C7323E"/>
<path d="M9.57699 6.33398H9.11865V6.97903H9.57699V6.33398Z" fill="white"/>
<path d="M6.79379 6.28906H6.33545V6.9341H6.79379V6.28906Z" fill="white"/>
<path d="M4.07674 6.28906H3.61841V6.9341H4.07674V6.28906Z" fill="white"/>
<path d="M1.32699 6.28906H0.868652V6.9341H1.32699V6.28906Z" fill="white"/>
<path d="M1.76624 38.5678H3.14036V37.9223H3.59959V37.2768H4.05792V36.6317H4.51581V35.9876H4.97415V35.3399H4.51581V34.6939H4.05792V34.0507H3.59959V33.4048H3.14125V32.7597H2.68292V32.1147H2.22502V32.7597H1.76624V33.4048H1.3088V34.0507H0.850465V34.6939H0.39213V35.3381H-0.066205V35.9876H0.39213V36.6326H0.850465V37.2777H1.3088V37.9236H1.76624V38.5678ZM2.22458 37.2768H2.68292V36.6317H3.14125V35.9876H3.59959V35.3399H3.14125V34.6939H2.68292V34.0507H2.22502V34.6939H1.76624V35.3381H1.3088V35.9876H1.76624V36.6326H2.22458V37.2768ZM2.22458 35.9863H2.68292V35.3399H2.22458V35.9863ZM-0.0666504 37.9223H0.391684V37.2768H-0.0666504V37.9223ZM-0.0666504 34.0507H0.391684V33.4048H-0.0666504V34.0507ZM4.97415 38.5678H5.24915V37.2768H4.97415V38.5678ZM4.97415 34.0507H5.24915V32.7597H4.97415V34.0507ZM0.851355 32.7597H1.3088V32.1147H1.76624V31.4692H2.22458V30.8237H1.76624V30.1787H1.3088V29.5332H0.850465V30.1787H0.39213V30.8237H-0.066205V31.4692H0.39213V32.1147H0.850465L0.851355 32.7597ZM0.851355 31.4692H1.3088V30.8237H0.850465L0.851355 31.4692ZM3.60003 32.7597H4.05792V32.1147H4.51625V31.4692H4.97459V30.8237H4.51581V30.1787H4.05792V29.5332H3.59959V30.1787H3.14125V30.8237H2.68292V31.4692H3.14125V32.1147H3.59959L3.60003 32.7597ZM3.60003 31.4692H4.05792V30.8237H3.59959L3.60003 31.4692ZM-0.066205 28.8881H0.39213V28.2426H-0.066205V28.8881ZM4.97415 29.5332H5.24915V28.2422H4.97415V29.5332Z" fill="#C7323E"/>
<path d="M-0.0661621 26.9516H0.392172V27.5966H0.850508V28.2421H1.30884V28.8876H1.76629V29.5326H2.22462V30.1781H2.68296V29.5326H3.14129V28.8876H3.59963V28.2421H4.05796V27.5966H4.51585V26.9516H4.97419V26.307H5.24919V23.7268H4.97419V23.0796H4.51585V22.4341H4.05796V21.789H3.59963V21.144H3.14129V20.4989H2.68296V18.8203H1.76629V19.208H1.30884V19.853H0.850508V20.4989H0.392172V21.144H-0.0661621V23.08H0.392172V22.4345H0.850508V21.789H1.30884V21.144H1.76629V21.789H2.22462V22.4341H2.68296V23.0796H3.14129V23.7268H3.59963V24.3719H4.05796V25.0178H3.59963V25.6628H3.14129V26.307H1.76629V25.6606H2.68296V25.0156H2.22507V24.3701H1.76629V23.7268H1.30884V24.3719H0.850508V25.0178H0.392172V25.6628H-0.0661621V26.9516ZM-0.0661621 24.3701H0.392172V23.7268H-0.0661621V24.3701ZM4.97419 22.4341H5.24919V21.789H4.97419V22.4341ZM4.05796 21.144H4.51585V20.4989H4.97419V19.8534H5.24919V18.8203H4.97419V19.208H4.51585V19.853H4.05796V21.144ZM3.14129 19.208H3.59963V18.8203H3.14129V19.208Z" fill="#C7323E"/>
<path d="M8.64037 38.5678H7.26581V37.9223H6.80703V37.2768H6.34959V36.6317H5.89125V35.9876H5.43292V35.3399H5.89125V34.6939H6.34959V34.0507H6.80748V33.4048H7.26581V32.7597H7.72415V32.1147H8.18248V32.7597H8.64082V33.4048H9.09871V34.0507H9.5566V34.6939H10.0154V35.3381H10.4733V35.9876H10.0149V36.6326H9.55615V37.2777H9.09826V37.9236H8.64037V38.5678ZM8.18204 37.2768H7.7237V36.6317H7.26537V35.9876H6.80703V35.3399H7.26537V34.6939H7.7237V34.0507H8.18204V34.6939H8.64037V35.3381H9.09826V35.9876H8.64037V36.6326H8.18204V37.2768ZM8.18204 35.9863H7.7237V35.3399H8.18204V35.9863ZM10.4728 37.9223H10.0145V37.2768H10.4728V37.9223ZM10.4728 34.0507H10.0145V33.4048H10.4728V34.0507ZM5.43247 38.5678H5.15747V37.2768H5.43247V38.5678ZM5.43247 34.0507H5.15747V32.7597H5.43247V34.0507ZM9.55348 32.7597H9.09826V32.1147H8.64037V31.4692H8.18204V30.8237H8.64037V30.1787H9.09826V29.5332H9.55615V30.1787H10.0149V30.8237H10.4728V31.4692H10.0149V32.1147H9.55615L9.55348 32.7597ZM9.55348 31.4692H9.09782V30.8237H9.55615L9.55348 31.4692ZM6.80481 32.7597H6.34959V32.1147H5.89125V31.4692H5.43292V30.8237H5.89125V30.1787H6.34959V29.5332H6.80748V30.1787H7.26581V30.8237H7.72415V31.4692H7.26581V32.1147H6.80748L6.80481 32.7597ZM6.80481 31.4692H6.34959V30.8237H6.80748L6.80481 31.4692ZM10.4706 28.8881H10.0145V28.2426H10.4728L10.4706 28.8881ZM5.43247 29.5332H5.15747V28.2422H5.43247V29.5332Z" fill="#C7323E"/>
<path d="M10.4728 26.9516H10.0149V27.5966H9.55615V28.2421H9.09826V28.8876H8.64037V29.5326H8.18204V30.1781H7.7237V29.5326H7.26537V28.8876H6.80703V28.2421H6.34959V27.5966H5.89125V26.9516H5.43292V26.307H5.15792V23.7268H5.43292V23.0796H5.89125V22.4341H6.34959V21.789H6.80748V21.144H7.26581V20.4989H7.72415V18.8203H8.64082V19.208H9.09871V19.853H9.5566V20.4989H10.0154V21.144H10.4733V23.08H10.0149V22.4345H9.55615V21.789H9.09826V21.144H8.64037V21.789H8.18204V22.4341H7.7237V23.0796H7.26537V23.7268H6.80703V24.3719H6.34959V25.0178H6.80748V25.6628H7.26581V26.307H8.64037V25.6606H7.7237V25.0156H8.18204V24.3701H8.64037V23.7268H9.09826V24.3719H9.55615V25.0178H10.0149V25.6628H10.4728V26.9516ZM10.4728 24.3701H10.0145V23.7268H10.4728V24.3701ZM5.43247 22.4341H5.15747V21.789H5.43247V22.4341ZM6.34959 21.144H5.89125V20.4989H5.43292V19.8534H5.15792V18.8203H5.43292V19.208H5.89125V19.853H6.34959V21.144ZM7.26581 19.208H6.80748V18.8203H7.26581V19.208Z" fill="#C7323E"/>
<path d="M7.705 34.0723H8.16289V34.7178H8.62123V35.3632H9.07956V36.0083H8.62123V36.6538H8.16289V37.2988H7.705V36.6538H7.24667V36.0083H6.78833V35.3632H7.24667V34.7178H7.705V34.0723Z" fill="#FCFDFF"/>
<path d="M2.20451 34.0723H2.6624V34.7178H3.12074V35.3632H3.57907V36.0083H3.12074V36.6538H2.6624V37.2988H2.20451V36.6538H1.74618V36.0083H1.28784V35.3632H1.74618V34.7178H2.20451V34.0723Z" fill="#FCFDFF"/>
<path d="M8.16292 35.3633H7.70459V36.0083H8.16292V35.3633Z" fill="#C7323E"/>
<path d="M2.68343 35.3398H2.2251V35.9849H2.68343V35.3398Z" fill="#C7323E"/>
<path d="M1.28792 30.7891H0.82959V31.4341H1.28792V30.7891Z" fill="white"/>
<path d="M4.07162 30.8359H3.61328V31.481H4.07162V30.8359Z" fill="white"/>
<path d="M6.78841 30.8359H6.33008V31.481H6.78841V30.8359Z" fill="white"/>
<path d="M9.53793 30.8359H9.07959V31.481H9.53793V30.8359Z" fill="white"/>
</g>
</g>
</g>
<defs>
<clipPath id="clip0_1472_1856">
<rect width="38" height="38" fill="white"/>
</clipPath>
</defs>
</svg>
