<svg width="27" height="26" viewBox="0 0 27 26" fill="none" xmlns="http://www.w3.org/2000/svg">
<g clip-path="url(#clip0_1468_936)">
<path d="M22.6 0H4.4C2.24609 0 0.5 1.74609 0.5 3.9V22.1C0.5 24.2539 2.24609 26 4.4 26H22.6C24.7539 26 26.5 24.2539 26.5 22.1V3.9C26.5 1.74609 24.7539 0 22.6 0Z" fill="#1877F2"/>
<path d="M18.5578 16.7578L19.1367 13H15.5312V10.5625C15.5312 9.53672 16.034 8.53125 17.6488 8.53125H19.2891V5.33203C19.2891 5.33203 17.8012 5.07812 16.3793 5.07812C13.4086 5.07812 11.4688 6.87578 11.4688 10.1359V13H8.16797V16.7578H11.4688V26H15.5312V16.7578H18.5578Z" fill="white"/>
</g>
<defs>
<clipPath id="clip0_1468_936">
<rect x="0.5" width="26" height="26" rx="13" fill="white"/>
</clipPath>
</defs>
</svg>
