<svg width="26" height="25" viewBox="0 0 26 25" fill="none" xmlns="http://www.w3.org/2000/svg">
<path d="M25.5 12.4997C25.5 9.70473 24.5778 7.12116 23.0218 5.03707C23.0052 5.0098 22.9859 4.98438 22.9641 4.96122C20.6797 1.94923 17.0636 0 13.0003 0C8.94514 0 5.33533 1.94157 3.05016 4.94346C3.01381 4.9779 2.98315 5.01814 2.95987 5.06305C1.41843 7.1388 0.504283 9.70665 0.500845 12.4842C0.500676 12.4896 0.5 12.4948 0.5 12.5003C0.5 12.5059 0.50062 12.5114 0.500845 12.5169C0.504621 15.2934 1.41854 17.8605 2.95942 19.9357C2.98298 19.9812 3.01409 20.0221 3.05106 20.057C5.33307 23.054 8.93551 24.9937 12.9832 24.9992C12.9887 24.9993 12.9942 25 12.9998 25C13.0052 25 13.0105 24.9994 13.0159 24.9992C17.0719 24.9941 20.6809 23.0472 22.9625 20.0402C22.9855 20.0161 23.0057 19.9895 23.023 19.9607C24.5783 17.8769 25.5 15.2939 25.5 12.4997ZM1.41392 12.9521H5.32586C5.37495 15.2287 5.79407 17.4005 6.53554 19.2767H3.59664C2.30068 17.4835 1.50471 15.3068 1.41392 12.9521ZM3.59641 5.72292H6.53543C5.7939 7.59934 5.37478 9.77151 5.3258 12.0485H1.41387C1.50443 9.6934 2.30034 7.51638 3.59641 5.72292ZM24.5869 12.0485H20.6748C20.6258 9.77151 20.2068 7.59934 19.4652 5.72298H22.4042C23.7003 7.51638 24.4962 9.6934 24.5869 12.0485ZM19.7711 12.0485H13.4515V5.72292H18.4894C19.2745 7.56586 19.7195 9.74705 19.7711 12.0485ZM13.4515 4.81931V0.929925C15.0503 1.11246 16.5532 2.2615 17.724 4.21298C17.8418 4.40933 17.9546 4.61175 18.0629 4.81937C18.0628 4.81931 13.4515 4.81931 13.4515 4.81931ZM12.5479 0.930038V4.81931H7.93778C8.04604 4.61164 8.15892 4.40927 8.27671 4.21293C9.44716 2.26206 10.9497 1.11302 12.5479 0.930038ZM12.5479 5.72292V12.0485H6.22958C6.28115 9.747 6.72619 7.56586 7.51128 5.72292H12.5479ZM6.22964 12.9521H12.548V19.2767H7.51145C6.72636 17.4341 6.28132 15.2532 6.22964 12.9521ZM12.5479 20.1803V24.0693C10.9497 23.8864 9.44716 22.7373 8.27671 20.7863C8.15898 20.5901 8.04616 20.3878 7.9379 20.1803H12.5479ZM13.4515 24.0693V20.1802H18.0627C17.9545 20.3877 17.8417 20.5901 17.7239 20.7863C16.5532 22.7378 15.0503 23.8869 13.4515 24.0693ZM13.4515 19.2767V12.9521H19.771C19.7194 15.2532 19.2743 17.434 18.4892 19.2767L13.4515 19.2767ZM20.6748 12.9521H24.5868C24.4959 15.3068 23.6999 17.4835 22.404 19.2767H19.4651C20.2067 17.4005 20.6257 15.2288 20.6748 12.9521ZM21.6804 4.81931H19.0722C18.8946 4.44742 18.7036 4.08939 18.4989 3.7481C17.9553 2.84213 17.3411 2.08871 16.6752 1.50075C18.6251 2.15391 20.3452 3.31225 21.6804 4.81931ZM9.32555 1.50075C8.65965 2.08871 8.04548 2.84213 7.50193 3.7481C7.29713 4.08951 7.10614 4.44742 6.92862 4.81931H4.32036C5.65543 3.31225 7.37558 2.15391 9.32555 1.50075ZM4.32064 20.1803H6.92873C7.10625 20.5521 7.29713 20.91 7.50193 21.2512C8.04548 22.1572 8.65965 22.9106 9.32555 23.4986C7.37569 22.8455 5.65565 21.6872 4.32064 20.1803ZM16.6752 23.4986C17.3411 22.9106 17.9553 22.1572 18.4988 21.2512C18.7035 20.91 18.8945 20.5521 19.072 20.1803H21.6801C20.345 21.6872 18.625 22.8455 16.6752 23.4986Z" fill="white"/>
</svg>
