<svg width="57" height="57" viewBox="0 0 57 57" fill="none" xmlns="http://www.w3.org/2000/svg">
<path d="M28.5 0C12.7598 0 0 12.7598 0 28.5C0 44.2402 12.7598 57 28.5 57C44.2402 57 57 44.2402 57 28.5C57 12.7598 44.2402 0 28.5 0Z" fill="#292F41"/>
<path d="M32.1936 28.6203C31.5536 28.3839 31.5536 27.481 31.5139 26.8522C31.3539 24.6125 32.1539 21.1933 31.1939 19.7396C30.5142 18.8744 27.2336 18.9536 25.2343 19.0718C24.6737 19.1511 23.994 19.268 23.514 19.5044C23.034 19.7408 22.554 20.1332 22.554 20.4866C22.554 20.9971 23.7546 20.9192 24.1937 21.5869C24.6737 22.2949 24.6737 23.8266 24.6737 25.0841C24.6737 26.5378 24.433 28.4644 23.834 28.5424C22.9137 28.5813 22.394 27.6772 21.914 27.0094C20.954 25.7129 19.994 24.1007 19.2734 22.5288C18.9137 21.7039 18.7128 20.7997 18.1931 20.4463C17.3931 19.8955 15.9531 19.8565 14.5528 19.8955C13.2728 19.9345 11.4322 19.7773 11.0725 20.5243C10.7922 21.3492 11.3925 22.1352 11.7125 22.8042C13.3522 26.3014 15.1122 29.3673 17.2728 32.2747C19.2734 34.986 21.1524 37.1477 24.8324 38.287C25.873 38.6014 30.4323 39.5056 31.3526 38.287C31.6726 37.8154 31.5932 36.7541 31.7532 35.9681C31.9132 35.1822 32.1129 34.3962 32.8732 34.3572C33.5132 34.3182 33.8729 34.8678 34.2735 35.2614C34.7139 35.694 35.0735 36.0473 35.3935 36.4409C36.1538 37.1879 36.9538 38.209 37.9138 38.6027C39.2335 39.1535 41.2738 38.9963 43.1937 38.917C44.754 38.8781 45.874 38.5637 45.9943 37.6595C46.075 36.9515 45.2737 35.9304 44.7937 35.3406C43.5931 33.8869 43.0337 33.4543 41.6731 32.1175C41.0728 31.5277 40.3125 30.899 40.3125 30.1922C40.2728 29.7596 40.6325 29.3673 40.9525 28.9347C42.3528 26.8912 43.7531 25.4375 45.0331 23.3148C45.3928 22.686 46.2337 21.2323 45.9137 20.5243C45.554 19.7383 43.5534 19.9735 42.3131 19.9735C40.7131 19.9735 38.6332 19.8553 38.2325 20.1697C37.4722 20.6802 37.1522 21.5064 36.7925 22.2924C35.9926 24.1007 34.9122 25.9468 33.7923 27.3225C33.3916 27.7941 32.6326 28.7763 32.1923 28.6191L32.1936 28.6203Z" fill="#6A6E79"/>
</svg>
