<svg width="22" height="21" viewBox="0 0 22 21" fill="none" xmlns="http://www.w3.org/2000/svg">
<g clip-path="url(#clip0_1468_686)">
<path d="M21.2147 8.46055H20.3757V8.41732H11.0007V12.584H16.8876C16.0288 15.0095 13.721 16.7507 11.0007 16.7507C7.54909 16.7507 4.75065 13.9522 4.75065 10.5007C4.75065 7.04909 7.54909 4.25065 11.0007 4.25065C12.5939 4.25065 14.0434 4.85169 15.147 5.83346L18.0934 2.88711C16.2329 1.15326 13.7444 0.0839844 11.0007 0.0839844C5.24805 0.0839844 0.583984 4.74805 0.583984 10.5007C0.583984 16.2533 5.24805 20.9173 11.0007 20.9173C16.7533 20.9173 21.4173 16.2533 21.4173 10.5007C21.4173 9.80221 21.3454 9.12044 21.2147 8.46055Z" fill="#FFC107"/>
<path d="M1.78418 5.65221L5.20658 8.16211C6.13262 5.8694 8.37533 4.25065 10.9998 4.25065C12.593 4.25065 14.0425 4.85169 15.1462 5.83346L18.0925 2.88711C16.2321 1.15326 13.7436 0.0839844 10.9998 0.0839844C6.99876 0.0839844 3.52897 2.34284 1.78418 5.65221Z" fill="#FF3D00"/>
<path d="M11 20.9165C13.6906 20.9165 16.1354 19.8868 17.9839 18.2124L14.7599 15.4842C13.7141 16.2764 12.4141 16.7499 11 16.7499C8.29062 16.7499 5.9901 15.0223 5.12344 12.6113L1.72656 15.2285C3.45052 18.602 6.95156 20.9165 11 20.9165Z" fill="#4CAF50"/>
<path d="M21.2141 8.45924H20.375V8.41602H11V12.5827H16.887C16.4745 13.7478 15.725 14.7525 14.7583 15.4842C14.7589 15.4837 14.7594 15.4837 14.7599 15.4832L17.9839 18.2113C17.7557 18.4186 21.4167 15.7077 21.4167 10.4993C21.4167 9.80091 21.3448 9.11914 21.2141 8.45924Z" fill="#1976D2"/>
</g>
<defs>
<clipPath id="clip0_1468_686">
<rect width="21" height="21" fill="white" transform="translate(0.5)"/>
</clipPath>
</defs>
</svg>
