<svg width="31" height="31" viewBox="0 0 31 31" fill="none" xmlns="http://www.w3.org/2000/svg">
<circle opacity="0.8" cx="15.5" cy="15.5" r="15.5" fill="white"/>
<path d="M13.8694 11C14.4856 10.5229 15.1064 10.0507 15.727 9.58329C16.3481 10.0455 16.9594 10.5174 17.5752 10.9846C17.3518 10.2249 17.1144 9.46549 16.877 8.71071C17.4927 8.23363 18.1139 7.76652 18.7344 7.29446C17.9682 7.28925 17.2018 7.29446 16.4303 7.28925C16.1975 6.52457 15.9649 5.76477 15.727 5C15.4895 5.76477 15.2661 6.52971 15.0189 7.28925C14.2574 7.28417 13.4958 7.28417 12.7344 7.28925C13.3406 7.77167 13.9665 8.22868 14.5775 8.70055C14.3496 9.46542 14.1072 10.2302 13.8694 11Z" fill="#CFAF2B"/>
<path d="M8.92671 19.7619C8.81399 20.153 8.70598 20.5439 8.58222 20.9295C15.347 18.059 22.1221 15.199 28.8821 12.318C26.0779 12.3232 23.2745 12.318 20.4658 12.3232C20.0696 12.8584 19.6683 13.3985 19.2619 13.9282C19.411 13.3934 19.5655 12.8584 19.7247 12.3287C19.4062 12.3287 19.0821 12.3287 18.7629 12.3287C18.5004 13.0074 18.1507 13.6507 17.7852 14.2783C17.6875 14.4533 17.5646 14.6177 17.4151 14.7568C17.4151 14.5865 17.4307 14.417 17.4818 14.2577C17.667 13.6144 17.868 12.9767 18.0427 12.3287C17.734 12.3287 17.4255 12.3287 17.1168 12.3287C16.9622 12.7402 16.9366 13.2132 16.6383 13.553C16.2629 14.0363 15.9028 14.5302 15.527 15.0137C15.7846 14.1186 16.0519 13.2234 16.3142 12.3287C15.9847 12.3287 15.6608 12.3287 15.3317 12.3287C15.172 12.8584 15.023 13.3934 14.8582 13.9179C14.5909 13.9848 14.3233 14.0567 14.051 14.1186C14.2205 13.5218 14.4005 12.9249 14.5752 12.3231C14.2256 12.3231 13.876 12.3231 13.526 12.3179C13.3611 12.8528 13.2122 13.3881 13.0577 13.923C13.0012 14.1083 12.9702 14.3191 12.8267 14.4633C12.3222 15.0546 11.8128 15.6463 11.3138 16.238C11.1136 16.4488 10.9283 16.763 10.5938 16.7369C10.3829 16.3769 10.4191 15.9396 10.4653 15.5384C11.0466 15.2401 11.6126 14.89 12.0858 14.4323C12.4972 14.026 12.8161 13.4551 12.729 12.8584C12.703 12.5392 12.4045 12.2821 12.0858 12.2821C11.5456 12.2253 11.0365 12.493 10.6454 12.838C9.93517 13.4757 9.49279 14.3657 9.28701 15.2867C8.98346 15.4356 8.67489 15.5846 8.37657 15.7392C8.25824 15.3536 8.06787 14.9877 7.8058 14.6796C8.54128 14.2163 9.25631 13.6452 9.63718 12.8482C9.81213 12.462 9.89971 12.0146 9.75545 11.6082C9.62137 11.2479 9.24103 11.0374 8.87048 11.0115C7.98552 10.9296 7.10108 11.2944 6.43719 11.8657C6.24171 12.0457 6.01543 12.2358 5.95355 12.5085C5.86644 12.8172 5.77339 13.1207 5.69146 13.4292C5.75808 13.4241 5.83016 13.419 5.89714 13.4139C6.23661 12.9609 6.63276 12.529 7.14712 12.2822C7.41951 12.1537 7.80025 12.1174 8.0217 12.354C8.20149 12.6115 8.09896 12.9508 8.00126 13.2185C7.66663 13.9903 6.993 14.5355 6.35991 15.0548C6.75095 15.4099 6.93109 15.9193 7.0186 16.4235C5.42381 17.3341 3.896 18.6095 3.23731 20.3794C3.01112 21.0329 2.88253 21.7787 3.14983 22.437C3.28379 22.7819 3.62835 23.0393 4.00399 23.0188C4.59561 22.998 5.12536 22.6687 5.57318 22.3033C6.64287 21.4035 7.44544 20.2098 7.98075 18.9234C8.30944 18.1262 8.51052 17.2618 8.47434 16.3926C8.70604 16.2745 8.94258 16.1609 9.17912 16.0478C9.15855 16.5416 9.17912 17.0714 9.4361 17.5137C9.57527 17.7609 9.86333 17.9204 10.1464 17.8586C10.5938 17.766 10.949 17.442 11.247 17.1127C11.7152 16.5569 12.1473 15.9709 12.6104 15.4048C12.4508 15.9961 12.2608 16.5826 12.1012 17.1745C12.4922 17.0561 12.8832 16.9275 13.2691 16.7938C13.4544 16.1456 13.634 15.4975 13.8296 14.8547C14.1024 14.7822 14.3696 14.7154 14.6424 14.6489C14.4673 15.2707 14.282 15.8936 14.1075 16.5159C14.4212 16.4029 14.7456 16.3103 15.0641 16.2018C15.1824 16.1712 15.2596 16.0686 15.3318 15.9756C15.7074 15.4663 16.0931 14.9674 16.469 14.4635C16.438 14.7154 16.4124 14.9776 16.4589 15.2298C16.4997 15.4356 16.6386 15.6516 16.8649 15.6675C17.1785 15.7136 17.4514 15.5026 17.6213 15.2607C17.9196 14.8388 18.1306 14.3658 18.3825 13.9232C18.2903 14.3347 18.2232 14.7513 18.1719 15.1684C18.5267 15.0088 18.9997 15.019 19.2212 14.6537C19.617 14.1341 20.0182 13.6248 20.4195 13.1105H20.9082C20.7746 13.5532 20.6462 13.9903 20.5071 14.4325C20.8366 14.3296 21.1604 14.2164 21.4895 14.129C21.6129 13.7948 21.7004 13.4499 21.8086 13.1105C22.8373 13.1155 23.8612 13.1105 24.8901 13.1105C19.6225 15.256 14.3444 17.3909 9.07124 19.5359C8.97328 19.5511 8.95786 19.6742 8.92671 19.7619ZM11.1238 13.3369C11.216 13.1875 11.3193 13.0022 11.5092 12.971C11.6583 13.0227 11.674 13.2182 11.6536 13.3518C11.5661 13.969 11.1182 14.4682 10.609 14.7924C10.7225 14.2884 10.8766 13.7843 11.1238 13.3369ZM6.39609 19.896C6.14375 20.4667 5.85058 21.0375 5.40832 21.4853C5.20774 21.6808 4.95585 21.866 4.66734 21.866C4.42565 21.799 4.38428 21.5058 4.36377 21.2947C4.38975 20.4923 4.7036 19.7311 5.13556 19.0621C5.6294 18.3058 6.2881 17.6525 7.03388 17.1484C6.99757 18.0953 6.75606 19.0209 6.39609 19.896Z" fill="#0097DB"/>
<path d="M20.6819 18.4141C20.3886 18.4141 20.1009 18.4141 19.8076 18.4141V18.9075H20.1367V20.5798H20.6921C20.687 19.8592 20.7079 19.1394 20.6819 18.4141Z" fill="#0097DB"/>
<path d="M24.3859 18.8721C24.2673 18.3421 23.5373 18.2089 23.1362 18.5019C22.9145 18.6511 22.853 18.924 22.8013 19.1656C22.9816 19.1708 23.1564 19.1708 23.3363 19.1708C23.3569 18.9491 23.4959 18.7746 23.7328 18.7898C23.8661 18.8105 23.9176 19.006 23.8819 19.1502C23.8306 19.3042 23.7273 19.4278 23.6248 19.5514C23.3261 19.896 23.0383 20.246 22.7451 20.5904C23.2902 20.5853 23.8409 20.5904 24.3911 20.5904C24.3911 20.4312 24.3911 20.2716 24.3911 20.1119C24.1854 20.1119 23.9744 20.1119 23.7688 20.1119C24.067 19.7674 24.5355 19.3919 24.3859 18.8721Z" fill="#0097DB"/>
<path d="M25.9136 19.2833C25.7181 19.1235 25.456 19.165 25.2243 19.165C25.2401 19.0722 25.2502 18.9847 25.2653 18.8922C25.5329 18.882 25.8004 18.882 26.0679 18.882C26.0679 18.7279 26.0679 18.5682 26.0679 18.4141C25.6824 18.4141 25.2965 18.4141 24.9106 18.4141C24.8389 18.7996 24.7457 19.1906 24.6792 19.5765C24.9259 19.4993 25.2038 19.4068 25.4505 19.5303C25.7183 19.6534 25.6563 20.1012 25.3732 20.1626C25.0906 20.2659 24.8282 20.0909 24.612 19.9215C24.5967 20.096 24.5813 20.2761 24.5605 20.4558C24.9673 20.6978 25.5329 20.7285 25.8983 20.4045C26.2273 20.1374 26.2484 19.5612 25.9136 19.2833Z" fill="#0097DB"/>
<path d="M22.5799 18.6935C22.3332 18.3231 21.7774 18.2666 21.4068 18.4776C20.9902 18.7196 20.9236 19.3727 21.2682 19.7019C21.4273 19.8509 21.6539 19.8612 21.8597 19.8564C21.6797 20.0929 21.515 20.3395 21.3556 20.5869H21.9781C22.1582 20.309 22.3589 20.0418 22.5335 19.7587C22.724 19.4393 22.7754 19.0175 22.5799 18.6935ZM22.0501 18.8275C22.1684 18.8788 22.2504 18.997 22.2504 19.1359C22.2504 19.2699 22.1684 19.3881 22.0552 19.4393C22.0552 19.4393 21.983 19.4654 21.9574 19.4654C21.942 19.4654 21.9263 19.4706 21.9113 19.4706C21.8386 19.4706 21.7723 19.4497 21.7205 19.4086H21.7157C21.6949 19.3932 21.6795 19.3777 21.6641 19.3625C21.6078 19.3005 21.5767 19.2233 21.5767 19.1359C21.5767 18.9505 21.726 18.7964 21.9161 18.7964C21.9366 18.7964 21.9574 18.7964 21.9779 18.8016C22.0035 18.8067 22.0501 18.8275 22.0501 18.8275Z" fill="#0097DB"/>
</svg>
