<svg width="30" height="30" viewBox="0 0 30 30" fill="none" xmlns="http://www.w3.org/2000/svg">
<path d="M28.5861 25.215L4.62757 1.40494C3.8468 0.629014 2.59082 0.619185 1.82225 1.38299L1.67577 1.52857C0.907202 2.29237 0.917092 3.54057 1.69786 4.3165L25.6564 28.1265C26.4371 28.9025 27.6931 28.9123 28.4617 28.1485L28.6082 28.0029C29.3767 27.2391 29.3669 25.9909 28.5861 25.215Z" fill="white"/>
<path d="M25.3722 1.8729L1.4137 25.6829C0.632936 26.4589 0.623047 27.7071 1.39161 28.4709L1.5381 28.6165C2.30666 29.3803 3.56265 29.3704 4.34341 28.5945L28.3019 4.78445C29.0827 4.00852 29.0926 2.76032 28.324 1.99652L28.1775 1.85095C27.409 1.08714 26.153 1.09697 25.3722 1.8729Z" fill="white"/>
</svg>
